<svg version="1.1" id="Layer_1" xmlns="http://www.w3.org/2000/svg" xmlns:xlink="http://www.w3.org/1999/xlink" x="0px" y="0px"
	 width="100%" viewBox="0 0 1024 1024" enable-background="new 0 0 1024 1024" xml:space="preserve">
<path fill="currentColor" opacity="1.000000" stroke="none" 
	d="
M385.548126,659.869141 
	C364.583862,666.313110 343.627441,670.578613 321.993378,670.726440 
	C273.126770,671.060242 236.205399,648.881592 215.090271,602.176514 
	C205.813507,581.656982 201.768509,559.845642 199.527145,537.543701 
	C197.342514,515.806213 196.660110,494.023987 197.018906,472.237183 
	C197.426636,447.479523 198.764267,422.760864 201.500076,398.100861 
	C206.644501,351.730072 215.503296,306.234924 230.817169,262.065643 
	C248.933334,209.813812 277.566101,164.574997 320.003632,128.726059 
	C359.910156,95.015198 406.007568,74.273338 457.261414,64.508728 
	C482.445862,59.710709 507.869598,58.312019 533.267029,59.891335 
	C593.577148,63.641659 648.400146,82.997337 696.394775,120.337524 
	C741.998962,155.817963 773.021057,201.737381 793.037781,255.529327 
	C806.764526,292.417633 815.694397,330.486023 821.458130,369.366699 
	C824.867920,392.368317 827.283508,415.429718 828.543335,438.672882 
	C829.870911,463.167328 829.881531,487.669708 829.012085,512.104675 
	C827.941162,542.200195 824.613220,572.157837 812.280457,600.220764 
	C795.684265,637.984924 767.751587,661.987793 726.610718,668.900818 
	C704.901550,672.548767 683.162903,670.733765 661.751709,665.738770 
	C652.901001,663.674011 644.155090,661.160156 635.526611,658.893921 
	C635.059326,659.411621 634.642151,659.661072 634.651428,659.893738 
	C635.479919,680.823059 635.617371,701.883972 648.730835,719.978027 
	C660.091736,735.653931 675.129395,746.677063 692.467957,754.690613 
	C717.128052,766.088013 743.238892,773.731079 768.483521,783.628479 
	C785.217651,790.189270 802.226196,796.085632 818.276306,804.287354 
	C850.752380,820.883057 871.686951,847.618347 885.272156,880.755859 
	C892.215027,897.691162 894.907532,915.498352 896.525330,933.625549 
	C897.221130,941.421387 896.774170,949.252136 897.975464,957.010803 
	C899.143616,964.555359 896.837463,966.935303 889.006714,966.933472 
	C802.509888,966.912720 716.013000,966.925781 629.516174,966.856323 
	C603.363464,966.835327 577.209167,966.322571 551.058533,966.489136 
	C432.580261,967.243652 314.101013,966.847778 195.622330,966.989319 
	C175.956436,967.012817 156.290497,967.041870 136.624619,967.026672 
	C129.573914,967.021240 127.185936,964.766541 127.831543,958.122375 
	C129.180618,944.238770 129.452545,930.296082 131.423508,916.425598 
	C136.268509,882.329285 150.204620,852.921692 174.248169,828.220886 
	C189.825348,812.217896 208.837128,801.835938 229.328186,793.808289 
	C260.319550,781.667175 291.789734,770.837463 323.108948,759.588806 
	C340.512085,753.338196 356.079987,743.722534 369.359070,730.647400 
	C381.116882,719.070129 387.147308,704.696960 389.555695,688.691406 
	C390.641418,681.476013 391.019135,674.148804 391.572144,666.861267 
	C391.768982,664.267517 391.931000,661.594177 391.119476,659.242432 
	C388.978149,658.349487 387.502167,659.495605 385.548126,659.869141 
M500.390411,491.637756 
	C487.283539,522.473206 466.731995,533.467407 437.013092,535.123291 
	C414.756836,536.363464 392.376038,535.284363 370.052216,535.447693 
	C363.333954,535.496826 356.795227,534.681152 350.297913,533.175110 
	C344.774048,531.894775 343.859161,532.638977 345.405518,538.148682 
	C359.495911,588.351746 385.764618,630.370544 430.753540,658.153259 
	C479.837494,688.464844 531.439392,691.051941 582.810425,664.476013 
	C633.947632,638.021057 664.453796,594.459351 679.689453,539.608398 
	C681.241455,534.020996 679.721802,532.293335 674.192871,533.587402 
	C667.643738,535.120361 661.056335,535.430054 654.383606,535.408691 
	C634.391296,535.344666 614.398621,535.390381 594.406128,535.383545 
	C589.086487,535.381714 583.812500,535.167664 578.498840,534.436707 
	C552.401123,530.846802 531.818481,513.742981 525.228088,489.578766 
	C522.287720,478.797638 520.745422,467.764954 520.828125,456.579742 
	C520.889526,448.263916 521.491028,439.952728 521.592773,431.636353 
	C521.658875,426.231720 520.157715,425.300873 512.808167,425.292328 
	C506.845947,425.285400 505.477448,426.320160 505.384460,431.427429 
	C505.208496,441.088470 505.353638,450.758148 505.028809,460.412933 
	C504.682373,470.708313 504.092529,481.011932 500.390411,491.637756 
M645.321655,248.986328 
	C640.797424,239.567734 638.673523,229.230270 635.207642,218.946762 
	C632.183594,220.745911 631.520264,222.706619 630.687683,224.451584 
	C627.880310,230.335449 624.433289,235.842484 620.780579,241.208740 
	C595.688293,278.071991 561.469177,303.856689 521.426697,322.364899 
	C479.815613,341.598114 435.673157,349.371124 390.148193,350.149963 
	C367.490784,350.537598 344.820129,350.128357 322.161255,350.467133 
	C313.545105,350.595947 304.895020,351.624725 296.767944,354.909271 
	C293.790985,356.112366 290.305969,357.943268 291.748505,361.733612 
	C293.193298,365.529877 296.711029,363.195099 299.167480,362.454376 
	C311.477173,358.742462 324.024170,355.872070 336.852783,355.929596 
	C373.329193,356.093231 409.809021,354.892792 446.287201,356.526001 
	C465.175293,357.371643 481.460724,363.088135 493.664673,378.169678 
	C495.675018,380.653992 498.179626,381.833160 501.498596,381.710754 
	C506.823944,381.514313 512.192688,381.291992 517.486938,381.742004 
	C525.076660,382.387085 530.768433,380.680542 536.067810,374.280273 
	C546.999695,361.077515 562.588501,357.939148 578.876526,357.833893 
	C604.705078,357.666992 630.535400,357.788452 656.364502,357.685730 
	C681.977173,357.583862 707.628906,356.764618 732.736755,363.431915 
	C735.547668,364.178375 737.631958,363.413635 737.752625,359.845428 
	C737.932739,354.522003 738.209229,349.194855 738.683350,343.890625 
	C739.047424,339.818176 737.447449,337.781158 733.651123,335.980957 
	C694.407349,317.371490 664.162903,289.472870 645.321655,248.986328 
M326.574188,398.135284 
	C319.728394,400.035950 318.531097,401.607086 318.309662,408.530914 
	C317.995209,418.360199 318.582153,428.135284 320.409363,437.788239 
	C323.061920,451.801239 325.651672,465.778931 332.060577,478.821716 
	C338.904907,492.750641 351.076630,497.869415 365.010590,498.413208 
	C386.623322,499.256592 408.295685,498.683807 429.941010,498.501831 
	C435.404694,498.455933 441.032440,498.306335 446.289032,497.007446 
	C460.814819,493.418274 466.315460,485.839233 468.302612,465.832092 
	C469.891113,449.838470 469.689697,433.471100 468.323395,417.436523 
	C467.026550,402.216644 466.706787,399.920685 452.525635,396.654114 
	C450.615814,396.214233 448.550232,396.384491 446.556732,396.383881 
	C410.922943,396.372986 375.289154,396.403717 339.655457,396.349335 
	C335.461975,396.342926 331.356354,396.612946 326.574188,398.135284 
M675.865479,494.360992 
	C688.448486,490.030884 694.816223,480.000702 698.536499,468.255676 
	C703.868103,451.423340 705.825867,433.856689 707.484131,416.373383 
	C708.884277,401.610596 707.240173,399.754761 696.061523,397.616486 
	C694.123474,397.245758 692.083252,397.338562 690.090088,397.336761 
	C661.442139,397.311127 632.794189,397.306610 604.146240,397.295502 
	C593.653076,397.291443 583.159729,397.238617 572.666931,397.294281 
	C566.713562,397.325836 560.561279,400.943451 559.524963,405.345856 
	C558.502136,409.691071 557.519348,414.163879 557.452393,418.594818 
	C557.208130,434.747223 557.066650,450.911926 557.424377,467.060059 
	C557.892395,488.188110 571.737488,498.704895 589.650391,498.654785 
	C609.304138,498.599792 628.959473,498.750275 648.611084,498.532837 
	C657.581848,498.433594 666.554016,497.724945 675.865479,494.360992 
M726.601440,615.862000 
	C722.827332,616.846558 718.980896,616.407959 715.169922,616.349792 
	C702.776733,616.160828 696.126343,610.952332 693.011047,599.201111 
	C692.954224,598.986877 692.551697,598.864258 691.941833,598.446167 
	C688.159424,605.843994 684.349915,613.162109 679.440674,619.718018 
	C683.285889,624.900940 687.882263,628.476624 692.912048,631.420288 
	C712.157654,642.683411 728.278503,642.686523 745.380554,628.232788 
	C759.803406,616.043274 767.000977,599.904663 767.699402,580.927063 
	C768.490479,559.434753 765.585327,539.333130 747.610962,524.503052 
	C745.030151,522.373657 744.912354,519.557007 747.401917,517.088074 
	C750.569824,513.946289 752.503296,510.102478 753.896851,505.976501 
	C758.081848,493.585114 760.588196,480.864899 759.542786,467.762207 
	C758.714050,457.374939 755.915283,447.448700 749.576965,438.893860 
	C748.248962,437.101532 746.844543,434.431732 744.236328,435.066498 
	C741.761353,435.668884 741.608765,438.655914 740.765320,440.777313 
	C740.524902,441.382202 740.490784,442.072906 740.388428,442.728424 
	C739.364746,449.282196 738.675781,455.908661 737.265259,462.377869 
	C732.964722,482.100494 728.630127,502.030823 714.275330,517.361572 
	C708.505859,523.523254 707.915955,531.233704 704.546021,538.020508 
	C708.154968,539.923889 708.251526,540.288025 718.154602,537.662781 
	C731.876343,534.025208 737.914185,541.416992 741.096680,550.110962 
	C745.717712,562.734497 747.078064,575.793701 744.053589,588.841614 
	C741.602112,599.417664 737.748596,609.650696 726.601440,615.862000 
M285.093292,445.179413 
	C284.268585,441.399261 285.008087,437.121063 281.249878,433.615112 
	C275.321564,439.677032 271.396118,446.609070 269.408722,454.634857 
	C266.778992,465.254486 266.590729,476.147827 267.560364,486.882446 
	C268.560913,497.959473 270.665253,508.970276 278.797089,517.689392 
	C281.689941,520.791199 279.939056,523.573608 277.053650,525.662537 
	C271.932861,529.369629 268.281189,534.253906 265.379364,539.773804 
	C259.824097,550.341003 258.127533,561.723877 257.914825,573.511902 
	C257.547211,593.887390 262.725922,612.047668 278.272034,626.206055 
	C287.876709,634.953308 299.179352,640.470398 312.219879,639.290833 
	C325.371826,638.101196 336.310852,631.166138 345.965454,622.281860 
	C347.548920,620.824707 347.566498,619.586975 346.450043,617.980042 
	C342.726349,612.620544 340.065857,606.692322 337.251099,600.840820 
	C336.659821,599.611755 336.174896,597.912842 334.171143,598.096375 
	C332.723083,599.075439 332.599457,600.691650 332.497162,602.103271 
	C332.220917,605.916565 330.132416,608.648926 327.440033,610.961487 
	C315.890564,620.881958 296.212555,617.788879 288.181030,604.945679 
	C282.251770,595.464233 279.794159,584.993713 280.048065,574.037842 
	C280.271271,564.406128 281.433258,554.775146 286.355530,546.112122 
	C291.078278,537.800049 297.231476,535.218384 306.437683,537.697266 
	C310.127838,538.690857 313.770691,539.862610 317.668060,539.745117 
	C319.328186,539.695129 321.306427,539.211609 320.469940,537.377869 
	C318.099518,532.181335 318.687805,526.098389 314.393097,521.373169 
	C305.845276,511.968262 298.450104,501.591522 294.778961,489.225647 
	C290.577576,475.073639 286.675598,460.811279 285.093292,445.179413 
z"/>
</svg>