<svg xmlns="http://www.w3.org/2000/svg" xml:space="preserve" viewBox="0 0 1024 1024"><path fill="currentColor" d="M385.548 659.87c-20.964 6.443-41.92 10.709-63.555 10.856-48.866.334-85.788-21.844-106.903-68.55-9.276-20.519-13.321-42.33-15.563-64.632-2.184-21.738-2.867-43.52-2.508-65.307.408-24.757 1.745-49.476 4.481-74.136 5.145-46.37 14.003-91.866 29.317-136.035 18.116-52.252 46.75-97.491 89.187-133.34 39.906-33.71 86.004-54.453 137.257-64.217 25.185-4.798 50.609-6.197 76.006-4.618 60.31 3.75 115.133 23.106 163.128 60.447 45.604 35.48 76.626 81.4 96.643 135.191 13.727 36.889 22.656 74.957 28.42 113.838 3.41 23.001 5.826 46.063 7.085 69.306 1.328 24.494 1.339 48.997.47 73.432-1.072 30.095-4.4 60.053-16.733 88.116-16.596 37.764-44.528 61.767-85.67 68.68-21.708 3.648-43.447 1.833-64.858-3.162-8.851-2.065-17.597-4.579-26.225-6.845-.468.518-.885.767-.876 1 .829 20.93.966 41.99 14.08 60.084 11.36 15.676 26.398 26.7 43.737 34.713 24.66 11.397 50.77 19.04 76.016 28.937 16.734 6.561 33.742 12.458 49.792 20.66 32.476 16.595 53.411 43.33 66.996 76.468 6.943 16.935 9.636 34.742 11.253 52.87.696 7.795.25 15.626 1.45 23.385 1.169 7.544-1.138 9.924-8.968 9.922-86.497-.02-172.994-.007-259.49-.077-26.154-.02-52.308-.533-78.458-.367-118.479.755-236.958.359-355.437.5-19.666.024-39.332.053-58.997.038-7.051-.006-9.44-2.26-8.793-8.905 1.349-13.883 1.62-27.826 3.592-41.696 4.845-34.097 18.78-63.504 42.824-88.205 15.577-16.003 34.59-26.385 55.08-34.413 30.992-12.14 62.462-22.97 93.78-34.22 17.404-6.25 32.972-15.865 46.251-28.94 11.758-11.578 17.788-25.951 20.197-41.957 1.085-7.215 1.463-14.542 2.016-21.83.197-2.593.359-5.267-.453-7.619-2.14-.893-3.617.254-5.57.627M500.39 491.638c-13.106 30.835-33.658 41.83-63.377 43.485-22.256 1.24-44.637.161-66.96.325-6.719.049-13.258-.767-19.755-2.273-5.524-1.28-6.439-.536-4.892 4.974 14.09 50.203 40.359 92.222 85.348 120.004 49.083 30.312 100.685 32.899 152.056 6.323 51.138-26.455 81.644-70.017 96.88-124.868 1.551-5.587.032-7.315-5.497-6.02-6.55 1.532-13.137 1.842-19.81 1.82-19.992-.063-39.984-.018-59.977-.024-5.32-.002-10.593-.216-15.907-.947-26.098-3.59-46.68-20.694-53.27-44.858-2.941-10.781-4.484-21.814-4.4-33 .06-8.315.662-16.626.764-24.943.066-5.404-1.435-6.335-8.785-6.344-5.962-.007-7.33 1.028-7.424 6.135-.176 9.661-.03 19.331-.355 28.986-.347 10.295-.936 20.599-4.639 31.225m144.932-242.652c-4.525-9.418-6.648-19.756-10.114-30.04-3.024 1.8-3.688 3.76-4.52 5.506-2.808 5.883-6.255 11.39-9.907 16.757-25.093 36.863-59.312 62.648-99.354 81.156-41.611 19.233-85.754 27.006-131.279 27.785-22.657.388-45.328-.022-67.987.317-8.616.129-17.266 1.158-25.393 4.442-2.977 1.203-6.462 3.034-5.02 6.825 1.445 3.796 4.963 1.461 7.42.72 12.31-3.712 24.856-6.582 37.685-6.524 36.476.163 72.956-1.037 109.434.596 18.888.846 35.174 6.562 47.378 21.644 2.01 2.484 4.515 3.663 7.834 3.54 5.325-.196 10.694-.418 15.988.032 7.59.645 13.281-1.061 18.58-7.462 10.933-13.202 26.522-16.34 42.81-16.446 25.828-.167 51.658-.046 77.488-.148 25.612-.102 51.264-.921 76.372 5.746 2.81.746 4.895-.018 5.016-3.587.18-5.323.456-10.65.93-15.954.364-4.073-1.236-6.11-5.032-7.91-39.244-18.61-69.488-46.508-88.33-86.995m-318.747 149.15c-6.846 1.9-8.043 3.471-8.264 10.395-.315 9.83.272 19.604 2.1 29.257 2.652 14.013 5.242 27.99 11.65 41.034 6.845 13.929 19.017 19.047 32.95 19.591 21.613.844 43.286.27 64.931.089 5.464-.046 11.091-.196 16.348-1.495 14.526-3.589 20.026-11.168 22.014-31.175 1.588-15.994 1.387-32.36.02-48.395-1.296-15.22-1.616-17.516-15.797-20.783-1.91-.44-3.976-.27-5.97-.27-35.633-.011-71.267.02-106.9-.035-4.194-.006-8.3.264-13.082 1.786m349.291 96.226c12.583-4.33 18.951-14.36 22.671-26.105 5.332-16.833 7.29-34.4 8.948-51.883 1.4-14.762-.244-16.618-11.422-18.757-1.939-.37-3.979-.277-5.972-.28-28.648-.025-57.296-.03-85.944-.04-10.493-.005-20.986-.057-31.48-.002-5.952.032-12.105 3.65-13.141 8.052-1.023 4.345-2.006 8.818-2.073 13.249-.244 16.152-.385 32.317-.028 48.465.468 21.128 14.313 31.645 32.226 31.595 19.654-.055 39.31.095 58.961-.122 8.97-.1 17.943-.808 27.254-4.172m50.736 121.501c-3.774.985-7.62.546-11.431.488-12.393-.19-19.044-5.398-22.159-17.149-.057-.214-.46-.337-1.07-.755-3.782 7.398-7.591 14.716-12.5 21.272 3.845 5.183 8.441 8.759 13.471 11.702 19.246 11.263 35.367 11.267 52.469-3.187 14.422-12.19 21.62-28.328 22.318-47.306.791-21.492-2.114-41.594-20.088-56.424-2.58-2.13-2.699-4.946-.21-7.415 3.169-3.142 5.102-6.986 6.496-11.111 4.185-12.392 6.691-25.112 5.646-38.215-.829-10.387-3.628-20.313-9.966-28.868-1.328-1.792-2.732-4.462-5.34-3.828-2.476.603-2.628 3.59-3.472 5.711-.24.605-.274 1.296-.377 1.951-1.023 6.554-1.712 13.18-3.123 19.65-4.3 19.722-8.635 39.653-22.99 54.984-5.77 6.161-6.359 13.872-9.729 20.659 3.609 1.903 3.706 2.267 13.609-.358 13.721-3.638 19.76 3.754 22.942 12.448 4.62 12.623 5.981 25.683 2.957 38.73-2.452 10.577-6.305 20.81-17.453 27.021M285.093 445.179c-.824-3.78-.085-8.058-3.843-11.564-5.928 6.062-9.854 12.994-11.841 21.02-2.63 10.62-2.818 21.513-1.849 32.247 1 11.077 3.105 22.088 11.237 30.807 2.893 3.102 1.142 5.885-1.743 7.974-5.121 3.707-8.773 8.59-11.675 14.11-5.555 10.568-7.251 21.95-7.464 33.739-.368 20.375 4.81 38.536 20.357 52.694 9.605 8.747 20.907 14.264 33.948 13.085 13.152-1.19 24.09-8.125 33.745-17.01 1.584-1.456 1.601-2.694.485-4.301-3.724-5.36-6.384-11.288-9.199-17.14-.591-1.228-1.076-2.927-3.08-2.744-1.448.98-1.572 2.596-1.674 4.007-.276 3.814-2.365 6.546-5.057 8.858-11.55 9.921-31.227 6.828-39.259-6.015-5.93-9.482-8.387-19.952-8.133-30.908.223-9.632 1.385-19.263 6.308-27.926 4.722-8.312 10.875-10.894 20.082-8.415 3.69.994 7.333 2.166 11.23 2.048 1.66-.05 3.638-.533 2.802-2.367-2.37-5.197-1.782-11.28-6.077-16.005-8.548-9.405-15.943-19.781-19.614-32.147-4.201-14.152-8.103-28.415-9.686-44.047"/></svg>