<?xml version="1.0" encoding="UTF-8" standalone="no"?>


<svg
   fill="currentColor"
   version="1.1"
   id="Capa_1"
   width="758.78473"
   height="799.99805"
   viewBox="0 0 390.00018 411.183"
   xml:space="preserve"
   xmlns="http://www.w3.org/2000/svg"
   xmlns:svg="http://www.w3.org/2000/svg"><defs
   id="defs1840">
	

		</defs>
<rect
   x="7.629394e-09"
   y="100.678"
   width="113.049"
   height="81.553001"
   id="rect1807" /><path
   d="M 113.049,12.583 C 113.049,5.644 107.403,0 100.465,0 H 12.583 C 5.646,0 0,5.644 0,12.583 v 63.99 h 113.049 z"
   id="path1809" /><path
   d="M 113.049,375.985 V 311.992 H 0 v 63.993 c 0,6.938 5.646,12.581 12.583,12.581 h 87.882 c 6.938,0 12.584,-5.643 12.584,-12.581 z M 56.524,338.681 c 6.396,0 11.598,5.203 11.598,11.6 0,6.396 -5.202,11.6 -11.598,11.6 -6.396,0 -11.601,-5.203 -11.601,-11.6 0,-6.397 5.205,-11.6 11.601,-11.6 z"
   id="path1811" /><rect
   x="7.629394e-09"
   y="206.336"
   width="113.049"
   height="81.553001"
   id="rect1813" /><polygon
   points="137.999,177.5 209.645,217.722 247.544,150.212 154.016,97.704 137.999,126.232 "
   id="polygon1815"
   transform="translate(-10.592)" /><path
   d="m 277.773,77.499 c 1.568,-2.795 1.954,-6.034 1.091,-9.118 -0.866,-3.085 -2.884,-5.649 -5.682,-7.219 l -72.604,-40.76 c -1.792,-1.007 -3.821,-1.54 -5.865,-1.54 -4.336,0 -8.348,2.349 -10.471,6.129 l -29.716,52.932 93.527,52.509 z"
   id="path1817" /><polygon
   points="149.532,324.792 137.999,318.318 137.999,345.333 "
   id="polygon1819"
   transform="translate(-10.592)" /><polygon
   points="198.537,237.502 137.999,203.515 137.999,292.303 160.636,305.011 "
   id="polygon1821"
   transform="translate(-10.592)" /><polygon
   points="218.503,228.748 270.631,293.779 331.039,245.355 264.863,162.803 263.952,161.665 249.79,173.02 "
   id="polygon1823"
   transform="translate(-10.592)" /><path
   d="m 387.368,176.333 -52.074,-64.966 c -2.288,-2.857 -5.704,-4.496 -9.368,-4.496 -2.713,0 -5.378,0.937 -7.501,2.638 l -47.363,37.967 67.085,83.69 47.366,-37.967 c 5.161,-4.138 5.993,-11.705 1.855,-16.866 z"
   id="path1825" /><path
   d="m 130.735,366.215 v 9.771 c 0,11.634 -9.466,21.098 -21.103,21.098 H 92.297 l 7.7,9.604 c 2.29,2.856 5.705,4.495 9.368,4.495 2.715,0 5.377,-0.937 7.499,-2.637 l 47.365,-37.97 -21.14,-26.374 z"
   id="path1827" /><polygon
   points="165.657,322.875 192.522,356.389 252.93,307.967 206.529,250.078 "
   id="polygon1829"
   transform="translate(-10.592)" />
</svg>
